<?xml version="1.0" encoding="UTF-8" standalone="no"?><!-- Generator: Gravit.io --><svg xmlns="http://www.w3.org/2000/svg" xmlns:xlink="http://www.w3.org/1999/xlink" style="isolation:isolate" viewBox="0 0 500 500" width="500pt" height="500pt"><defs><clipPath id="_clipPath_6T0BgAMgYwa4sPcuB2gWOCnAu69cfqkb"><rect width="500" height="500"/></clipPath></defs><g clip-path="url(#_clipPath_6T0BgAMgYwa4sPcuB2gWOCnAu69cfqkb)"><rect width="500" height="500" style="fill:rgb(0,0,0)"/><defs><filter id="iTDIAcAGqmpJVkOSp5rSYYg7mevpbe5a" x="-200%" y="-200%" width="400%" height="400%" filterUnits="objectBoundingBox" color-interpolation-filters="sRGB"><feGaussianBlur xmlns="http://www.w3.org/2000/svg" in="SourceGraphic" stdDeviation="21.46804531419514"/><feOffset xmlns="http://www.w3.org/2000/svg" dx="0" dy="0" result="pf_100_offsetBlur"/><feFlood xmlns="http://www.w3.org/2000/svg" flood-color="#FF00FF" flood-opacity="1"/><feComposite xmlns="http://www.w3.org/2000/svg" in2="pf_100_offsetBlur" operator="in" result="pf_100_dropShadow"/><feBlend xmlns="http://www.w3.org/2000/svg" in="SourceGraphic" in2="pf_100_dropShadow" mode="normal"/></filter></defs><g filter="url(#iTDIAcAGqmpJVkOSp5rSYYg7mevpbe5a)"><mask id="_mask_0OZcFqJJUI1UxwrvSSkikK01NSdUzY7r"><circle vector-effect="non-scaling-stroke" cx="250" cy="244" r="225" fill="white" stroke="none"/></mask><circle vector-effect="non-scaling-stroke" cx="250" cy="244" r="225" fill="none"/><circle vector-effect="non-scaling-stroke" cx="250" cy="244" r="225" fill="none" mask="url(#_mask_0OZcFqJJUI1UxwrvSSkikK01NSdUzY7r)" stroke-width="30" stroke="rgb(255,255,255)" stroke-linejoin="miter" stroke-linecap="square" stroke-miterlimit="3"/></g><g><defs><filter id="QNZQ2tfQCT5uQiaztaQdteFEBhobqHsJ" x="-200%" y="-200%" width="400%" height="400%" filterUnits="objectBoundingBox" color-interpolation-filters="sRGB"><feGaussianBlur xmlns="http://www.w3.org/2000/svg" in="SourceGraphic" stdDeviation="8.587218125678056"/><feOffset xmlns="http://www.w3.org/2000/svg" dx="0" dy="0" result="pf_100_offsetBlur"/><feFlood xmlns="http://www.w3.org/2000/svg" flood-color="#9809F4" flood-opacity="1"/><feComposite xmlns="http://www.w3.org/2000/svg" in2="pf_100_offsetBlur" operator="in" result="pf_100_dropShadow"/><feBlend xmlns="http://www.w3.org/2000/svg" in="SourceGraphic" in2="pf_100_dropShadow" mode="normal"/></filter></defs><g filter="url(#QNZQ2tfQCT5uQiaztaQdteFEBhobqHsJ)"><path d=" M 369.584 272.624 C 369.584 273.2 369.584 273.136 369.584 273.712" fill="none" vector-effect="non-scaling-stroke" stroke-width="7.68" stroke="rgb(153,0,255)" stroke-linejoin="round" stroke-linecap="round" stroke-miterlimit="10"/></g><defs><filter id="3yj2iSjP94lfiduaMTgMfC4yfQbpaYVL" x="-200%" y="-200%" width="400%" height="400%" filterUnits="objectBoundingBox" color-interpolation-filters="sRGB"><feGaussianBlur xmlns="http://www.w3.org/2000/svg" in="SourceGraphic" stdDeviation="8.587218125678056"/><feOffset xmlns="http://www.w3.org/2000/svg" dx="0" dy="0" result="pf_100_offsetBlur"/><feFlood xmlns="http://www.w3.org/2000/svg" flood-color="#4A86E8" flood-opacity="1"/><feComposite xmlns="http://www.w3.org/2000/svg" in2="pf_100_offsetBlur" operator="in" result="pf_100_dropShadow"/><feBlend xmlns="http://www.w3.org/2000/svg" in="SourceGraphic" in2="pf_100_dropShadow" mode="normal"/></filter></defs><g filter="url(#3yj2iSjP94lfiduaMTgMfC4yfQbpaYVL)"><path d=" M 369.584 286.704 C 369.584 294.128 369.584 301.552 369.584 308.976 C 368.176 314.608 367.536 320.496 365.296 325.808 C 357.04 345.904 341.936 357.872 320.496 361.712 C 317.808 362.16 315.12 362.352 312.368 362.48 C 307.76 362.736 304.624 359.792 304.624 355.184 C 304.624 321.392 304.624 287.6 304.624 253.808 C 304.624 249.072 307.824 246.256 312.624 246.448 C 329.136 247.088 343.088 253.296 354.352 265.392 C 354.672 265.712 354.992 265.968 355.312 266.288 C 355.504 266.032 355.632 265.904 355.632 265.776 C 355.76 248.688 356.784 231.472 351.344 214.896 C 338.864 176.816 313.392 151.664 274.416 142.384 C 234.8 132.976 200.24 144.048 172.208 173.616 C 168.24 177.84 164.656 182.256 161.52 186.864" fill="none" vector-effect="non-scaling-stroke" stroke-width="7.68" stroke="rgb(74,134,232)" stroke-linejoin="round" stroke-linecap="round" stroke-miterlimit="10"/></g><defs><filter id="o9njuZaNa0sWPkCEhgKJbeGRTfe8nORW" x="-200%" y="-200%" width="400%" height="400%" filterUnits="objectBoundingBox" color-interpolation-filters="sRGB"><feGaussianBlur xmlns="http://www.w3.org/2000/svg" in="SourceGraphic" stdDeviation="8.587218125678056"/><feOffset xmlns="http://www.w3.org/2000/svg" dx="0" dy="0" result="pf_100_offsetBlur"/><feFlood xmlns="http://www.w3.org/2000/svg" flood-color="#9900FF" flood-opacity="1"/><feComposite xmlns="http://www.w3.org/2000/svg" in2="pf_100_offsetBlur" operator="in" result="pf_100_dropShadow"/><feBlend xmlns="http://www.w3.org/2000/svg" in="SourceGraphic" in2="pf_100_dropShadow" mode="normal"/></filter></defs><g filter="url(#o9njuZaNa0sWPkCEhgKJbeGRTfe8nORW)"><path d=" M 151.344 206.256 C 146.608 218.416 144.24 231.6 144.24 245.552 C 144.24 250.864 144.24 256.112 144.24 261.424 C 144.24 262.064 144.304 262.768 144.368 263.664 C 146.8 261.424 148.912 259.248 151.216 257.328 C 161.84 248.304 174.256 244.016 188.08 243.696 C 192.368 243.568 195.312 246.576 195.312 251.056 C 195.312 258.48 195.312 265.904 195.312 273.328" fill="none" vector-effect="non-scaling-stroke" stroke-width="7.68" stroke="rgb(153,0,255)" stroke-linejoin="round" stroke-linecap="round" stroke-miterlimit="10"/></g><defs><filter id="2Z02fFaDnE3DdyRvCzwxrTdV5lqCH3ZA" x="-200%" y="-200%" width="400%" height="400%" filterUnits="objectBoundingBox" color-interpolation-filters="sRGB"><feGaussianBlur xmlns="http://www.w3.org/2000/svg" in="SourceGraphic" stdDeviation="8.587218125678056"/><feOffset xmlns="http://www.w3.org/2000/svg" dx="0" dy="0" result="pf_100_offsetBlur"/><feFlood xmlns="http://www.w3.org/2000/svg" flood-color="#FF30FF" flood-opacity="1"/><feComposite xmlns="http://www.w3.org/2000/svg" in2="pf_100_offsetBlur" operator="in" result="pf_100_dropShadow"/><feBlend xmlns="http://www.w3.org/2000/svg" in="SourceGraphic" in2="pf_100_dropShadow" mode="normal"/></filter></defs><g filter="url(#2Z02fFaDnE3DdyRvCzwxrTdV5lqCH3ZA)"><path d=" M 195.312 303.792 C 195.312 319.6 195.312 335.472 195.312 351.28 C 195.312 357.552 192.432 360.048 186.096 359.664 C 174.128 359.024 163.632 355.376 154.544 348.784" fill="none" vector-effect="non-scaling-stroke" stroke-width="7.68" stroke="rgb(255,48,255)" stroke-linejoin="round" stroke-linecap="round" stroke-miterlimit="10"/></g><defs><filter id="nHJ6f9Yh8t7F5uxiKsnpACtODTVTmo0j" x="-200%" y="-200%" width="400%" height="400%" filterUnits="objectBoundingBox" color-interpolation-filters="sRGB"><feGaussianBlur xmlns="http://www.w3.org/2000/svg" in="SourceGraphic" stdDeviation="8.587218125678056"/><feOffset xmlns="http://www.w3.org/2000/svg" dx="0" dy="0" result="pf_100_offsetBlur"/><feFlood xmlns="http://www.w3.org/2000/svg" flood-color="#2FE6E7" flood-opacity="1"/><feComposite xmlns="http://www.w3.org/2000/svg" in2="pf_100_offsetBlur" operator="in" result="pf_100_dropShadow"/><feBlend xmlns="http://www.w3.org/2000/svg" in="SourceGraphic" in2="pf_100_dropShadow" mode="normal"/></filter></defs><g filter="url(#nHJ6f9Yh8t7F5uxiKsnpACtODTVTmo0j)"><path d=" M 140.72 334.704 C 135.28 327.024 132.016 318.256 130.8 308.656 C 130.672 307.824 130.48 306.992 130.352 306.16 C 130.352 283.44 130.352 260.656 130.352 237.936 C 130.48 237.168 130.672 236.4 130.8 235.696 C 131.376 231.408 131.696 226.992 132.528 222.768 C 137.84 195.248 151.088 172.272 172.464 154.16 C 183.28 145.008 194.736 138.096 206.896 133.36" fill="none" vector-effect="non-scaling-stroke" stroke-width="7.68" stroke="rgb(49,240,240)" stroke-linejoin="round" stroke-linecap="round" stroke-miterlimit="10"/></g><defs><filter id="Hs8aF0JLgzTh9i89T5qhnQIuOXyw0NWi" x="-200%" y="-200%" width="400%" height="400%" filterUnits="objectBoundingBox" color-interpolation-filters="sRGB"><feGaussianBlur xmlns="http://www.w3.org/2000/svg" in="SourceGraphic" stdDeviation="8.587218125678056"/><feOffset xmlns="http://www.w3.org/2000/svg" dx="0" dy="0" result="pf_100_offsetBlur"/><feFlood xmlns="http://www.w3.org/2000/svg" flood-color="#F94545" flood-opacity="1"/><feComposite xmlns="http://www.w3.org/2000/svg" in2="pf_100_offsetBlur" operator="in" result="pf_100_dropShadow"/><feBlend xmlns="http://www.w3.org/2000/svg" in="SourceGraphic" in2="pf_100_dropShadow" mode="normal"/></filter></defs><g filter="url(#Hs8aF0JLgzTh9i89T5qhnQIuOXyw0NWi)"><path d=" M 223.728 128.176 C 237.872 125.104 252.784 124.656 268.336 126.96 C 293.488 130.608 315.184 141.68 333.424 159.472 C 351.856 177.456 363.376 199.152 367.792 224.56 C 368.56 228.976 369.008 233.456 369.648 237.936 C 369.648 245.232 369.648 252.528 369.648 259.824" fill="none" vector-effect="non-scaling-stroke" stroke-width="7.68" stroke="rgb(249,69,69)" stroke-linejoin="round" stroke-linecap="round" stroke-miterlimit="10"/></g></g><g clip-path="url(#_clipPath_ki56nIMSGQ2xcY4KZVjLVnGyXXutXmoS)"><text transform="matrix(1,0,0,1,45.5,463.141)" style="font-family:'Press Start 2P';font-weight:400;font-size:80px;font-style:normal;fill:#00FFFF;stroke:none;">ePlay</text></g><defs><clipPath id="_clipPath_ki56nIMSGQ2xcY4KZVjLVnGyXXutXmoS"><rect x="0" y="0" width="402" height="85.859" transform="matrix(1,0,0,1,45.5,383.141)"/></clipPath></defs><g clip-path="url(#_clipPath_kGlpLn7ExiFwj9aLEBqa9l8W9qaVUeyv)"><text transform="matrix(1,0,0,1,52.5,456.941)" style="font-family:'Press Start 2P';font-weight:400;font-size:80px;font-style:normal;fill:#9900FF;stroke:none;">ePlay</text></g><defs><clipPath id="_clipPath_kGlpLn7ExiFwj9aLEBqa9l8W9qaVUeyv"><rect x="0" y="0" width="402" height="85.859" transform="matrix(1,0,0,1,52.5,376.941)"/></clipPath></defs></g></svg>