<?xml version="1.0" encoding="UTF-8" standalone="no"?><!-- Generator: Gravit.io --><svg xmlns="http://www.w3.org/2000/svg" xmlns:xlink="http://www.w3.org/1999/xlink" style="isolation:isolate" viewBox="0 0 500 500" width="500pt" height="500pt"><defs><clipPath id="_clipPath_1jakTx7fZ1vMX6PqoCXLIFLzduJGp0CF"><rect width="500" height="500"/></clipPath></defs><g clip-path="url(#_clipPath_1jakTx7fZ1vMX6PqoCXLIFLzduJGp0CF)"><rect width="500" height="500" style="fill:rgb(0,0,0)" fill-opacity="0"/><g><defs><filter id="AWXSaP48l6sPBd7dqnp1f2bAetAt1MxA" x="-200%" y="-200%" width="400%" height="400%" filterUnits="objectBoundingBox" color-interpolation-filters="sRGB"><feGaussianBlur xmlns="http://www.w3.org/2000/svg" in="SourceGraphic" stdDeviation="21.46804531419514"/><feOffset xmlns="http://www.w3.org/2000/svg" dx="0" dy="0" result="pf_100_offsetBlur"/><feFlood xmlns="http://www.w3.org/2000/svg" flood-color="#9809F4" flood-opacity="1"/><feComposite xmlns="http://www.w3.org/2000/svg" in2="pf_100_offsetBlur" operator="in" result="pf_100_dropShadow"/><feBlend xmlns="http://www.w3.org/2000/svg" in="SourceGraphic" in2="pf_100_dropShadow" mode="normal"/></filter></defs><g filter="url(#AWXSaP48l6sPBd7dqnp1f2bAetAt1MxA)"><path d=" M 456.641 293.463 C 456.641 294.458 456.641 294.348 456.641 295.343" fill="none" vector-effect="non-scaling-stroke" stroke-width="18" stroke="rgb(153,0,255)" stroke-linejoin="round" stroke-linecap="round" stroke-miterlimit="10"/></g><defs><filter id="clRCB1ofrhZCQFSDjL4ipUp5Q5qBK0Hw" x="-200%" y="-200%" width="400%" height="400%" filterUnits="objectBoundingBox" color-interpolation-filters="sRGB"><feGaussianBlur xmlns="http://www.w3.org/2000/svg" in="SourceGraphic" stdDeviation="21.46804531419514"/><feOffset xmlns="http://www.w3.org/2000/svg" dx="0" dy="0" result="pf_100_offsetBlur"/><feFlood xmlns="http://www.w3.org/2000/svg" flood-color="#4A86E8" flood-opacity="1"/><feComposite xmlns="http://www.w3.org/2000/svg" in2="pf_100_offsetBlur" operator="in" result="pf_100_dropShadow"/><feBlend xmlns="http://www.w3.org/2000/svg" in="SourceGraphic" in2="pf_100_dropShadow" mode="normal"/></filter></defs><g filter="url(#clRCB1ofrhZCQFSDjL4ipUp5Q5qBK0Hw)"><path d=" M 456.641 317.793 C 456.641 330.622 456.641 343.451 456.641 356.279 C 454.208 366.011 453.102 376.186 449.232 385.365 C 434.965 420.091 408.865 440.771 371.817 447.407 C 367.172 448.181 362.527 448.513 357.772 448.734 C 349.809 449.176 344.39 444.089 344.39 436.127 C 344.39 377.734 344.39 319.341 344.39 260.949 C 344.39 252.765 349.92 247.899 358.214 248.231 C 386.747 249.337 410.856 260.064 430.32 280.966 C 430.873 281.519 431.426 281.961 431.979 282.514 C 432.311 282.072 432.532 281.851 432.532 281.63 C 432.753 252.102 434.523 222.352 425.122 193.709 C 403.557 127.907 359.541 84.444 292.191 68.408 C 223.734 52.151 164.015 71.284 115.575 122.377 C 108.719 129.676 102.526 137.307 97.107 145.27" fill="none" vector-effect="non-scaling-stroke" stroke-width="18" stroke="rgb(74,134,232)" stroke-linejoin="round" stroke-linecap="round" stroke-miterlimit="10"/></g><defs><filter id="rzZvn1vykndE2lPiszDGV4oa2c1nb8k7" x="-200%" y="-200%" width="400%" height="400%" filterUnits="objectBoundingBox" color-interpolation-filters="sRGB"><feGaussianBlur xmlns="http://www.w3.org/2000/svg" in="SourceGraphic" stdDeviation="21.46804531419514"/><feOffset xmlns="http://www.w3.org/2000/svg" dx="0" dy="0" result="pf_100_offsetBlur"/><feFlood xmlns="http://www.w3.org/2000/svg" flood-color="#9900FF" flood-opacity="1"/><feComposite xmlns="http://www.w3.org/2000/svg" in2="pf_100_offsetBlur" operator="in" result="pf_100_dropShadow"/><feBlend xmlns="http://www.w3.org/2000/svg" in="SourceGraphic" in2="pf_100_dropShadow" mode="normal"/></filter></defs><g filter="url(#rzZvn1vykndE2lPiszDGV4oa2c1nb8k7)"><path d=" M 79.522 178.779 C 71.339 199.792 67.247 222.573 67.247 246.683 C 67.247 255.862 67.247 264.93 67.247 274.109 C 67.247 275.215 67.357 276.432 67.468 277.98 C 71.67 274.109 75.32 270.349 79.301 267.031 C 97.66 251.438 119.114 244.028 143.002 243.475 C 150.412 243.254 155.499 248.452 155.499 256.193 C 155.499 269.022 155.499 281.851 155.499 294.679" fill="none" vector-effect="non-scaling-stroke" stroke-width="18" stroke="rgb(153,0,255)" stroke-linejoin="round" stroke-linecap="round" stroke-miterlimit="10"/></g><defs><filter id="PsX8UbEFvrgYzx6LlSdnjKPBh8UVPNUB" x="-200%" y="-200%" width="400%" height="400%" filterUnits="objectBoundingBox" color-interpolation-filters="sRGB"><feGaussianBlur xmlns="http://www.w3.org/2000/svg" in="SourceGraphic" stdDeviation="21.46804531419514"/><feOffset xmlns="http://www.w3.org/2000/svg" dx="0" dy="0" result="pf_100_offsetBlur"/><feFlood xmlns="http://www.w3.org/2000/svg" flood-color="#FF30FF" flood-opacity="1"/><feComposite xmlns="http://www.w3.org/2000/svg" in2="pf_100_offsetBlur" operator="in" result="pf_100_dropShadow"/><feBlend xmlns="http://www.w3.org/2000/svg" in="SourceGraphic" in2="pf_100_dropShadow" mode="normal"/></filter></defs><g filter="url(#PsX8UbEFvrgYzx6LlSdnjKPBh8UVPNUB)"><path d=" M 155.499 347.321 C 155.499 374.637 155.499 402.064 155.499 429.381 C 155.499 440.219 150.523 444.532 139.574 443.868 C 118.893 442.762 100.756 436.458 85.052 425.067" fill="none" vector-effect="non-scaling-stroke" stroke-width="18" stroke="rgb(255,48,255)" stroke-linejoin="round" stroke-linecap="round" stroke-miterlimit="10"/></g><defs><filter id="l6WQjoLx72eMPpqbzSKGls1qEPPXoQKJ" x="-200%" y="-200%" width="400%" height="400%" filterUnits="objectBoundingBox" color-interpolation-filters="sRGB"><feGaussianBlur xmlns="http://www.w3.org/2000/svg" in="SourceGraphic" stdDeviation="21.46804531419514"/><feOffset xmlns="http://www.w3.org/2000/svg" dx="0" dy="0" result="pf_100_offsetBlur"/><feFlood xmlns="http://www.w3.org/2000/svg" flood-color="#2FE6E7" flood-opacity="1"/><feComposite xmlns="http://www.w3.org/2000/svg" in2="pf_100_offsetBlur" operator="in" result="pf_100_dropShadow"/><feBlend xmlns="http://www.w3.org/2000/svg" in="SourceGraphic" in2="pf_100_dropShadow" mode="normal"/></filter></defs><g filter="url(#l6WQjoLx72eMPpqbzSKGls1qEPPXoQKJ)"><path d=" M 61.164 400.737 C 51.764 387.466 46.124 372.315 44.022 355.726 C 43.801 354.289 43.469 352.851 43.248 351.413 C 43.248 312.153 43.248 272.782 43.248 233.522 C 43.469 232.195 43.801 230.868 44.022 229.651 C 45.018 222.242 45.571 214.611 47.008 207.312 C 56.188 159.757 79.08 120.055 116.018 88.757 C 134.708 72.942 154.504 60.999 175.516 52.815" fill="none" vector-effect="non-scaling-stroke" stroke-width="18" stroke="rgb(49,240,240)" stroke-linejoin="round" stroke-linecap="round" stroke-miterlimit="10"/></g><defs><filter id="skFDPbrEj504jTjgJTFDwq1sk0oCXlGw" x="-200%" y="-200%" width="400%" height="400%" filterUnits="objectBoundingBox" color-interpolation-filters="sRGB"><feGaussianBlur xmlns="http://www.w3.org/2000/svg" in="SourceGraphic" stdDeviation="21.46804531419514"/><feOffset xmlns="http://www.w3.org/2000/svg" dx="0" dy="0" result="pf_100_offsetBlur"/><feFlood xmlns="http://www.w3.org/2000/svg" flood-color="#F94545" flood-opacity="1"/><feComposite xmlns="http://www.w3.org/2000/svg" in2="pf_100_offsetBlur" operator="in" result="pf_100_dropShadow"/><feBlend xmlns="http://www.w3.org/2000/svg" in="SourceGraphic" in2="pf_100_dropShadow" mode="normal"/></filter></defs><g filter="url(#skFDPbrEj504jTjgJTFDwq1sk0oCXlGw)"><path d=" M 204.602 43.857 C 229.043 38.548 254.811 37.774 281.685 41.756 C 325.147 48.059 362.638 67.192 394.157 97.936 C 426.007 129.013 445.914 166.503 453.545 210.408 C 454.872 218.039 455.646 225.781 456.752 233.522 C 456.752 246.13 456.752 258.737 456.752 271.345" fill="none" vector-effect="non-scaling-stroke" stroke-width="18" stroke="rgb(249,69,69)" stroke-linejoin="round" stroke-linecap="round" stroke-miterlimit="10"/></g></g></g></svg>